<svg id="Objects" xmlns="http://www.w3.org/2000/svg" viewBox="0 0 469.81 422.96"><defs><style>.cls-1{fill:#bad3f7;}.cls-2{fill:#fefefe;}.cls-3{fill:#f6fcfe;}.cls-10,.cls-4{fill:#2e3547;}.cls-5{fill:#6895dd;}.cls-6{fill:#4d77b5;}.cls-11,.cls-19,.cls-7{fill:#fff;}.cls-8{fill:#81aabe;}.cls-9{fill:#bfd0e1;}.cls-10{font-size:12px;font-family:Poppins-ExtraBold, Poppins;font-weight:700;letter-spacing:0.1em;}.cls-11{font-size:8px;font-family:Poppins-Light, Poppins;letter-spacing:0.1em;}.cls-12{fill:#8d8f93;}.cls-13{fill:#444;}.cls-14{fill:#1e1e1e;}.cls-15{fill:#2b2b2b;}.cls-16{fill:#6b6b6b;}.cls-17{fill:#bcc5d6;}.cls-18{fill:#415483;}.cls-19{font-size:10.33px;font-family:Poppins-Medium, Poppins;}.cls-20{fill:#cecece;}.cls-21{fill:#7f7f7f;}.cls-22{fill:#fad4bb;}.cls-23{fill:#faba95;}.cls-24{fill:#fab998;}</style></defs><title>banner</title><path class="cls-1" d="M165.18,283.54s-51.79-22.66-77.68-43.69-47.74-34-51.79,4,27.51,64.74,73.64,67.16,57.45-4,57.45-4S177.32,292.44,165.18,283.54Z" transform="translate(0 -77.04)"/><path class="cls-2" d="M74.15,265.17a49.46,49.46,0,0,1-16.2,3,30.37,30.37,0,0,1-10.06-1.58l.54-1.55c10,3.54,22.09-.29,24.63-1.18A119.4,119.4,0,0,1,53.79,241l1.37-.9A118.63,118.63,0,0,0,73.39,261.9a34.36,34.36,0,0,0-4.69-20.72l1.4-.84a35.39,35.39,0,0,1,4.79,22.93,112.93,112.93,0,0,0,21.12,15c1.47-5.25-2.22-20-3-21.35l.7-.44.68-.45c.68,1,5,17.13,3.08,23a122.3,122.3,0,0,0,22.83,9.32c-.07-3.66-2.92-14.29-4.09-18.31l1.58-.45c.18.62,4.32,15,4.15,19.23a132.93,132.93,0,0,0,19.11,3.89l-4.28-15.14,1.58-.44,4.46,15.8a112.46,112.46,0,0,0,23.36.54l.2,1.62a80.09,80.09,0,0,1-8.49.37,133.82,133.82,0,0,1-16.07-1c-2,1.9-7.52,6.86-13.13,9.67l-.74-1.47a57.8,57.8,0,0,0,11.74-8.48,136.08,136.08,0,0,1-18.46-3.86c-3.79,4.27-19.91,7.66-21.87,8.06L99,296.83c6.73-1.37,17.23-4.29,20.43-7a123.45,123.45,0,0,1-22.89-9.4c-3.88,3.2-15.22,3.7-21.88,3.7-2.77,0-4.73-.08-5-.1l.07-1.63c5.68.25,20.48.2,25.22-2.82a114.92,114.92,0,0,1-20.56-14.55Z" transform="translate(0 -77.04)"/><path class="cls-1" d="M167.34,196.26S133.62,112.8,78.6,124.94s33.17,126.23,82.53,138.37S167.34,196.26,167.34,196.26Z" transform="translate(0 -77.04)"/><path class="cls-3" d="M93.56,186.07l.33-1.61,28.38,5.74c-6.88-9.31-13.26-18.35-18.52-26l-28.1-9.36.52-1.56,26,8.68c-7.54-11-12.43-18.52-12.59-18.76l1.38-.89c.15.23,5,7.67,12.44,18.53l5.6-22.74,1.59.4-6,24.15c5.42,7.86,12.07,17.29,19.25,27a158,158,0,0,0,6-26.79l1.63.19a160.58,160.58,0,0,1-6.42,28.22c6.13,8.24,12.6,16.62,19,24.37,1.51-3.5,4.42-19.71,6-29.86l1.62.26c-.72,4.6-4.31,27-6.52,30.93,5,6,9.87,11.51,14.51,16.27,1.32-5.52,5.91-25,6.48-31.64l1.64.14c-.64,7.35-5.88,29.25-6.76,32.87,2.85,2.86,5.59,5.4,8.18,7.54l-1.05,1.26c-2.63-2.17-5.41-4.75-8.31-7.66l-26.37,2.71-.17-1.63,25.07-2.58c-4.69-4.81-9.63-10.4-14.62-16.4a19.67,19.67,0,0,1-4.07.32c-8.51,0-24.57-2.43-30.41-3.36l.26-1.62c13.88,2.22,28.88,3.86,33.11,3.32-6.4-7.76-12.88-16.14-19-24.38Z" transform="translate(0 -77.04)"/><path class="cls-1" d="M390.68,301.76s31.56-13.82,47.35-26.64,29.1-20.72,31.57,2.47-16.77,39.46-44.89,40.94-35-2.47-35-2.47S383.28,307.18,390.68,301.76Z" transform="translate(0 -77.04)"/><path class="cls-2" d="M446.16,290.55a29.81,29.81,0,0,0,9.88,1.81,18.42,18.42,0,0,0,6.13-1l-.33-.95c-6.11,2.16-13.46-.17-15-.72a72.89,72.89,0,0,0,11.75-13.88l-.84-.55a71.87,71.87,0,0,1-11.11,13.26,20.93,20.93,0,0,1,2.86-12.62l-.86-.52a21.67,21.67,0,0,0-2.92,14,68.58,68.58,0,0,1-12.87,9.16c-.89-3.19,1.35-12.18,1.81-13l-.42-.26-.41-.28c-.42.62-3,10.44-1.88,14A74.9,74.9,0,0,1,418,304.73c.05-2.23,1.78-8.71,2.49-11.16l-1-.28c-.11.38-2.63,9.16-2.52,11.72a82.11,82.11,0,0,1-11.65,2.38l2.6-9.23-1-.27-2.72,9.63a68.9,68.9,0,0,1-14.24.33l-.12,1a50.64,50.64,0,0,0,5.18.22,82.43,82.43,0,0,0,9.79-.61,37.6,37.6,0,0,0,8,5.89l.44-.89a35.62,35.62,0,0,1-7.15-5.17,83.72,83.72,0,0,0,11.25-2.35c2.31,2.6,12.14,4.66,13.33,4.9l.2-1c-4.1-.83-10.5-2.61-12.45-4.24a75.89,75.89,0,0,0,13.95-5.73c2.37,1.95,9.28,2.25,13.34,2.25,1.69,0,2.88-.05,3-.06l0-1c-3.46.15-12.48.12-15.38-1.72A69.74,69.74,0,0,0,446,290.49Z" transform="translate(0 -77.04)"/><path class="cls-1" d="M389.36,248.55s20.55-50.87,54.09-43.47S423.23,282,393.14,289.42,389.36,248.55,389.36,248.55Z" transform="translate(0 -77.04)"/><path class="cls-3" d="M434.33,242.34l-.2-1-17.29,3.5c4.19-5.68,8.08-11.19,11.28-15.83l17.13-5.71-.32-.95-15.87,5.29c4.6-6.69,7.59-11.29,7.68-11.43l-.84-.55c-.09.15-3,4.68-7.58,11.3l-3.42-13.86-1,.24,3.63,14.72c-3.3,4.79-7.36,10.55-11.73,16.47a96.41,96.41,0,0,1-3.66-16.33l-1,.12a98.84,98.84,0,0,0,3.91,17.19c-3.73,5-7.68,10.14-11.58,14.86-.92-2.13-2.69-12-3.66-18.2l-1,.15c.44,2.81,2.63,16.46,4,18.86-3,3.64-6,7-8.85,9.92-.8-3.37-3.6-15.24-3.95-19.29l-1,.09c.39,4.48,3.59,17.83,4.12,20-1.73,1.74-3.4,3.29-5,4.59l.64.77c1.6-1.32,3.3-2.9,5.06-4.67L410,274.3l.1-1-15.28-1.56c2.86-2.94,5.87-6.34,8.91-10a11.57,11.57,0,0,0,2.48.2c5.19,0,15-1.48,18.54-2l-.16-1c-8.46,1.35-17.61,2.35-20.18,2,3.9-4.73,7.85-9.84,11.58-14.86Z" transform="translate(0 -77.04)"/><line class="cls-4" x1="392.93" y1="63.1" x2="392.93" y2="59.98"/><line class="cls-4" x1="392.93" y1="121.9" x2="392.93" y2="118.78"/><rect class="cls-5" x="142.5" y="20.02" width="252.29" height="223.89"/><rect class="cls-6" x="142.5" y="20.02" width="252.29" height="25.62"/><rect class="cls-6" x="142.5" y="107.14" width="252.29" height="9.91"/><rect class="cls-4" x="131.3" y="12.52" width="271.1" height="14.69"/><rect class="cls-4" x="125.5" y="33.6" width="281.73" height="6.56"/><line class="cls-4" x1="303.51" y1="111.11" x2="303.51" y2="105.98"/><rect class="cls-6" x="142.5" y="179.86" width="252.29" height="9.91"/><rect class="cls-4" x="140" y="178.93" width="258.15" height="4.9"/><rect class="cls-4" x="358.57" width="13.11" height="14.75"/><rect class="cls-4" x="376.18" y="5.33" width="10.65" height="12.29"/><rect class="cls-4" x="136.25" y="243.05" width="266.15" height="6.56"/><rect class="cls-6" x="312.57" y="92.54" width="32.54" height="7.34"/><rect class="cls-6" x="356.83" y="92.54" width="32.54" height="7.34"/><rect class="cls-7" x="354.56" y="50.57" width="36.93" height="5.19"/><rect class="cls-7" x="358.83" y="53.93" width="28.99" height="37.84"/><rect class="cls-7" x="356.89" y="90.48" width="32.62" height="5.73"/><polygon class="cls-8" points="384.58 90.81 361.08 57.17 361.08 90.81 384.58 90.81"/><polygon class="cls-9" points="385.35 90.81 385.35 56.12 361.08 56.12 361.08 57.17 384.58 90.81 385.35 90.81"/><rect class="cls-7" x="310.18" y="50.57" width="36.93" height="5.19"/><rect class="cls-7" x="314.45" y="53.93" width="28.99" height="37.84"/><rect class="cls-7" x="312.51" y="90.48" width="32.62" height="5.73"/><polygon class="cls-8" points="340.2 90.81 316.7 57.17 316.7 90.81 340.2 90.81"/><polygon class="cls-9" points="340.97 90.81 340.97 56.12 316.7 56.12 316.7 57.17 340.2 90.81 340.97 90.81"/><rect class="cls-6" x="312.57" y="164.17" width="32.54" height="7.34"/><rect class="cls-6" x="356.83" y="164.17" width="32.54" height="7.34"/><rect class="cls-7" x="354.56" y="121.47" width="36.93" height="5.19"/><rect class="cls-7" x="358.83" y="124.82" width="28.99" height="37.84"/><rect class="cls-7" x="356.89" y="161.38" width="32.62" height="5.73"/><polygon class="cls-8" points="384.58 161.71 361.08 128.07 361.08 161.71 384.58 161.71"/><polygon class="cls-9" points="385.35 161.71 385.35 127.02 361.08 127.02 361.08 128.07 384.58 161.71 385.35 161.71"/><rect class="cls-7" x="310.18" y="121.47" width="36.93" height="5.19"/><rect class="cls-7" x="314.45" y="124.82" width="28.99" height="37.84"/><rect class="cls-7" x="312.51" y="161.38" width="32.62" height="5.73"/><polygon class="cls-8" points="340.2 161.71 316.7 128.07 316.7 161.71 340.2 161.71"/><polygon class="cls-9" points="340.97 161.71 340.97 127.02 316.7 127.02 316.7 128.07 340.2 161.71 340.97 161.71"/><rect class="cls-7" x="321.68" y="195.76" width="58.29" height="47.35"/><polygon class="cls-9" points="377.17 198.21 352.62 198.21 352.62 199.95 377.17 233.37 377.17 198.21"/><polygon class="cls-8" points="352.62 199.95 352.62 243.11 377.17 243.11 377.17 233.37 352.62 199.95"/><polygon class="cls-8" points="324.53 200.83 324.53 243.11 349.08 243.11 349.08 230.43 324.53 200.83"/><polygon class="cls-9" points="349.08 198.21 324.53 198.21 324.53 200.83 349.08 230.43 349.08 198.21"/><rect class="cls-7" x="343.18" y="215.81" width="3.12" height="8.11" rx="1.53" ry="1.53"/><rect class="cls-7" x="355.29" y="215.81" width="3.12" height="8.11" rx="1.53" ry="1.53"/><rect class="cls-4" x="247.41" y="18.98" width="34.72" height="174.76" rx="10.97" ry="10.97" transform="translate(369.43 -236.13) rotate(89.63)"/><rect class="cls-5" x="250.17" y="22.61" width="28.53" height="167.51" rx="9.02" ry="9.02" transform="translate(369.1 -235.8) rotate(89.63)"/><text class="cls-10" transform="translate(224.13 26.52) scale(1.12 1)">ANGKASA</text><text class="cls-11" transform="translate(224.3 33.88) scale(1.12 1)">Futsal Stadium</text><rect class="cls-12" x="30.19" y="248.68" width="416.45" height="3.8"/><rect class="cls-13" x="186.93" y="48.06" width="130.2" height="226.78" rx="14.91" ry="14.91"/><path class="cls-14" d="M256.19,134.84a4.11,4.11,0,1,1-4.11-4.11A4.12,4.12,0,0,1,256.19,134.84Z" transform="translate(0 -77.04)"/><path class="cls-15" d="M266.12,134.84a2.71,2.71,0,1,1-2.7-2.71A2.7,2.7,0,0,1,266.12,134.84Z" transform="translate(0 -77.04)"/><path class="cls-16" d="M257.29,347.72h-18a3.16,3.16,0,0,1-3.16-3.16h0a3.17,3.17,0,0,1,3.16-3.16h18a3.16,3.16,0,0,1,3.16,3.16h0A3.15,3.15,0,0,1,257.29,347.72Z" transform="translate(0 -77.04)"/><path class="cls-7" d="M284.19,137.18a2.11,2.11,0,0,1,0,.26,7.44,7.44,0,0,1-7.44,7.43H226.68a7.43,7.43,0,0,1-7.43-7.43c0-.09,0-.18,0-.26H201.6a5.14,5.14,0,0,0-5.14,5.14V332.41a5.14,5.14,0,0,0,5.14,5.14H301.85a5.14,5.14,0,0,0,5.14-5.14V142.32a5.14,5.14,0,0,0-5.14-5.14Z" transform="translate(0 -77.04)"/><rect class="cls-17" x="209.31" y="84.44" width="85.45" height="14.17" rx="3.12" ry="3.12"/><path class="cls-18" d="M299,176.88l-5.17-5a7.79,7.79,0,1,0-1.49,1.8l5.05,4.86a1.2,1.2,0,0,0,.81.32,1.13,1.13,0,0,0,.83-.36A1.16,1.16,0,0,0,299,176.88Z" transform="translate(0 -77.04)"/><path class="cls-17" d="M292.75,167.92a5.61,5.61,0,1,1-5.61-5.61A5.61,5.61,0,0,1,292.75,167.92Z" transform="translate(0 -77.04)"/><rect class="cls-5" x="219.85" y="207.81" width="67.99" height="19.95" rx="7.35" ry="7.35"/><text class="cls-19" transform="translate(226.53 221.53)">BOOK NOW</text><path class="cls-5" d="M255.13,315.62a3,3,0,1,1-3-3A3,3,0,0,1,255.13,315.62Z" transform="translate(0 -77.04)"/><path class="cls-20" d="M263.8,315.62a3,3,0,1,1-3-3A3,3,0,0,1,263.8,315.62Z" transform="translate(0 -77.04)"/><path class="cls-20" d="M246,315.62a3,3,0,1,1-3-3A3,3,0,0,1,246,315.62Z" transform="translate(0 -77.04)"/><rect class="cls-21" x="284.77" y="245.73" width="13.27" height="1.55"/><rect class="cls-21" x="284.77" y="248.71" width="13.27" height="1.55"/><rect class="cls-21" x="284.77" y="251.76" width="13.27" height="1.55"/><path class="cls-5" d="M294,201.53a5.65,5.65,0,1,1-5.65-5.65A5.65,5.65,0,0,1,294,201.53Z" transform="translate(0 -77.04)"/><path class="cls-5" d="M294,230.93a5.65,5.65,0,1,1-5.65-5.65A5.65,5.65,0,0,1,294,230.93Z" transform="translate(0 -77.04)"/><path class="cls-5" d="M294,262.43a5.65,5.65,0,1,1-5.65-5.65A5.65,5.65,0,0,1,294,262.43Z" transform="translate(0 -77.04)"/><rect class="cls-21" x="219.98" y="121.34" width="50.51" height="1.79"/><rect class="cls-21" x="247.66" y="125.58" width="22.82" height="1.79"/><rect class="cls-21" x="227.55" y="125.58" width="8.96" height="1.79"/><rect class="cls-21" x="226.38" y="150.68" width="44.11" height="1.79"/><rect class="cls-21" x="247.66" y="154.93" width="22.82" height="1.79"/><rect class="cls-21" x="234.55" y="154.93" width="8.96" height="1.79"/><rect class="cls-21" x="226.38" y="181.6" width="44.11" height="1.79"/><rect class="cls-21" x="247.66" y="185.84" width="22.82" height="1.79"/><rect class="cls-21" x="213.99" y="185.84" width="31.16" height="1.79"/><path class="cls-22" d="M190.37,268.28s4.28,20.37,4.28,35.38-7.14,31.8-7.14,31.8l13.22,16.08,67.9.36S254,374.77,225,389.06s-42.88,24.3-46.1,27.88-27.16,30-27.16,30l-64.68-65s23.23-18.23,30.38-39.31,10.72-67.54,19.65-77.55,29.66-21.44,38.6-43.95,10.72-37.17,21.44-37.17S219,190,212.88,218.25,190.37,268.28,190.37,268.28Z" transform="translate(0 -77.04)"/><polygon class="cls-22" points="93.74 299.03 0 372.96 0 422.96 103.19 422.96 155.19 366.13 93.74 299.03"/><path class="cls-23" d="M182.64,207.9l16.3,4.26s5.16-13.69,4.73-18.89c-.61-7.31-10.52-8.07-13.26-4.57S182.64,207.9,182.64,207.9Z" transform="translate(0 -77.04)"/><path class="cls-24" d="M200.73,351.54l-13.22-16.08s-11.1,27.93-25.46,31.56c16.72,3.46,36.18-3.81,36.18-3.81s40.25.83,60.17,1.15a93.17,93.17,0,0,0,10.23-12.46Z" transform="translate(0 -77.04)"/><path class="cls-22" d="M324.09,207.65l-10,3.55a13.21,13.21,0,0,1-16.86-8h0a13.2,13.2,0,0,1,8-16.86l10-3.56a13.22,13.22,0,0,1,16.87,8h0A13.22,13.22,0,0,1,324.09,207.65Z" transform="translate(0 -77.04)"/><path class="cls-23" d="M301.17,191.75a36.39,36.39,0,0,1,7.39,17.62c6.86-1.88,11.7-6.32,9.15-14S304.12,190.41,301.17,191.75Z" transform="translate(0 -77.04)"/><path class="cls-22" d="M325.48,247l-10,3.55a13.2,13.2,0,0,1-16.86-8h0a13.2,13.2,0,0,1,8-16.86l10-3.56a13.22,13.22,0,0,1,16.87,8h0A13.22,13.22,0,0,1,325.48,247Z" transform="translate(0 -77.04)"/><path class="cls-23" d="M302.56,231.13A36.39,36.39,0,0,1,310,248.75c6.86-1.88,11.7-6.32,9.15-14S305.52,229.79,302.56,231.13Z" transform="translate(0 -77.04)"/><path class="cls-22" d="M325.48,279.6l-10,3.56a13.21,13.21,0,0,1-16.86-8h0a13.21,13.21,0,0,1,8-16.87l10-3.55a13.22,13.22,0,0,1,16.87,8h0A13.21,13.21,0,0,1,325.48,279.6Z" transform="translate(0 -77.04)"/><path class="cls-23" d="M302.56,263.71A36.39,36.39,0,0,1,310,281.33c6.86-1.89,11.7-6.33,9.15-14S305.52,262.37,302.56,263.71Z" transform="translate(0 -77.04)"/><path class="cls-22" d="M324.22,314.36l-.77.27a13.21,13.21,0,0,1-16.86-8h0a13.21,13.21,0,0,1,8-16.87l.76-.27a13.22,13.22,0,0,1,16.87,8h0A13.22,13.22,0,0,1,324.22,314.36Z" transform="translate(0 -77.04)"/><path class="cls-23" d="M310.11,295.08a36.66,36.66,0,0,1,6.49,17c6-1.82,10.26-6.09,8-13.47S312.71,293.78,310.11,295.08Z" transform="translate(0 -77.04)"/><rect class="cls-4" x="308.78" y="27.2" width="32.73" height="2.64"/><rect class="cls-4" x="185.8" y="27.2" width="32.73" height="2.64"/></svg>